<svg width="24" height="25" viewBox="0 0 24 25" fill="none" xmlns="http://www.w3.org/2000/svg">
<path d="M16.6114 11.6378C18.6983 12.7367 20.1883 14.3804 21.0814 16.569C24.2391 24.2958 8.58722 22.4747 5.78493 21.8872C3.56132 21.4242 2.4666 20.2608 2.50078 18.397C2.55545 15.5358 5.08435 12.8542 7.47314 11.396C7.58022 11.3315 7.60187 11.2451 7.53807 11.1368C2.91428 3.06792 15.7194 -1.40713 17.2914 7.05569C17.5261 8.30893 17.2539 9.69118 16.4747 11.2024C16.3767 11.3936 16.4223 11.5388 16.6114 11.6378ZM16.0372 7.94035C16.0372 6.85981 15.6127 5.82352 14.8571 5.05947C14.1015 4.29541 13.0767 3.86616 12.0081 3.86616C10.9395 3.86616 9.91465 4.29541 9.15904 5.05947C8.40343 5.82352 7.97891 6.85981 7.97891 7.94035C7.97891 9.02089 8.40343 10.0572 9.15904 10.8212C9.91465 11.5853 10.9395 12.0145 12.0081 12.0145C13.0767 12.0145 14.1015 11.5853 14.8571 10.8212C15.6127 10.0572 16.0372 9.02089 16.0372 7.94035ZM20.1313 17.9271C19.6665 15.6015 17.3564 13.7043 15.4905 12.4465C15.4425 12.4144 15.3866 12.3968 15.3291 12.3955C15.2717 12.3943 15.215 12.4096 15.1658 12.4395C13.0743 13.7227 10.9737 13.7262 8.86404 12.4499C8.75012 12.3831 8.63507 12.3796 8.51888 12.4395C6.36361 13.5638 4.85196 15.2502 3.98393 17.4986C3.38246 19.0571 4.41454 20.0627 5.87036 20.4048C7.96867 20.8955 21.0369 22.4782 20.1313 17.9271Z" fill="#747474"/>
<path d="M12.1278 16.1474C12.6148 16.1474 13.0095 15.7483 13.0095 15.2559C13.0095 14.7635 12.6148 14.3643 12.1278 14.3643C11.6409 14.3643 11.2461 14.7635 11.2461 15.2559C11.2461 15.7483 11.6409 16.1474 12.1278 16.1474Z" fill="#747474"/>
</svg>
